<svg width="135" height="141" viewBox="0 0 135 141" fill="none" xmlns="http://www.w3.org/2000/svg">
<g clip-path="url(#clip0_129_1163)">
<path fill-rule="evenodd" clip-rule="evenodd" d="M0 0C45 0 90 0 135 0C135 47 135 94 135 141C90 141 45 141 0 141C0 94 0 47 0 0Z" fill="#F5E4B7"/>
<path fill-rule="evenodd" clip-rule="evenodd" d="M60.1622 22.0001C87.9094 21.9505 105.409 35.2839 112.662 62.0001C114.582 90.7265 101.749 108.893 74.1622 116.5C53.7219 119.695 37.5552 112.861 25.6622 96.0001C11.8666 69.6354 16.7 47.4688 40.1622 29.5001C46.4206 25.5217 53.0873 23.0217 60.1622 22.0001Z" fill="#EC6565"/>
<path fill-rule="evenodd" clip-rule="evenodd" d="M57.9661 32.06C59.9934 31.8979 61.9934 32.0645 63.9661 32.56C65.0197 33.9476 65.1864 35.4476 64.4661 37.06C49.8369 39.6924 40.1702 48.0258 35.4661 62.06C34.0785 63.1136 32.5785 63.2803 30.9661 62.56C29.8747 60.4961 29.708 58.3295 30.4661 56.06C35.9621 43.7465 45.1288 35.7465 57.9661 32.06Z" fill="#FBF6F6"/>
<path fill-rule="evenodd" clip-rule="evenodd" d="M61.8568 60.0361C71.86 59.5377 76.0266 64.2044 74.3568 74.0361C70.8253 79.718 65.992 81.218 59.8568 78.5361C52.7717 71.4755 53.4384 65.3088 61.8568 60.0361Z" fill="#FBF8F8"/>
<path fill-rule="evenodd" clip-rule="evenodd" d="M27.9398 76.0622C34.2819 75.896 40.6152 76.0627 46.9398 76.5622C53.8474 90.3119 63.8474 93.3119 76.9398 85.5622C79.2731 82.5622 81.6065 79.5622 83.9398 76.5622C89.9398 75.8955 95.9398 75.8955 101.94 76.5622C103.334 77.5182 104.001 78.8516 103.94 80.5622C96.0858 104.004 79.7525 114.004 54.9398 110.562C41.5065 106.128 32.3398 97.2951 27.4398 84.0622C26.718 81.3017 26.8846 78.635 27.9398 76.0622Z" fill="#FBFAFA"/>
</g>
<defs>
<clipPath id="clip0_129_1163">
<rect width="135" height="141" fill="white"/>
</clipPath>
</defs>
</svg>
